<?xml version="1.0" encoding="utf-8"?><!-- Uploaded to: SVG Repo, www.svgrepo.com, Generator: SVG Repo Mixer Tools -->
<svg xmlns="http://www.w3.org/2000/svg">
    <symbol fill="currentColor" viewBox="0 0 22 22" id="about">
        <path d="M20 1H5V2H4V15H6V3H15V19H13V18H12V17H1V20H2V21H16V20H17V3H19V5H21V2H20" />
    </symbol>
    <symbol fill="currentColor" viewBox="0 0 22 22" id="cv">
        <path d="M9 3H13V4H14V5H15V9H14V10H13V11H9V10H8V9H7V5H8V4H9V3M10 8V9H12V8H13V6H12V5H10V6H9V8H10M7 12H15V13H17V14H18V15H19V19H3V15H4V14H5V13H7V12M6 16H5V17H17V16H16V15H14V14H8V15H6V16Z" />
    </symbol>
    <symbol fill="currentColor" viewBox="0 0 22 22" id="terminal">
        <path d="M20 3V19H19V20H3V19H2V3H3V2H19V3H20M18 6H4V18H18V6M9 9V10H10V11H11V13H10V14H9V15H8V16H6V14H7V13H8V11H7V10H6V8H8V9H9M11 16V14H16V16H11Z" />
    </symbol>
    <symbol fill="currentColor" viewBox="0 0 22 22" id="browser">
        <path d="M 15 21 L 7 21 L 7 20 L 5 20 L 5 19 L 4 19 L 4 18 L 3 18 L 3 17 L 2 17 L 2 15 L 1 15 L 1 7 L 2 7 L 2 5 L 3 5 L 3 4 L 4 4 L 4 3 L 5 3 L 5 2 L 7 2 L 7 1 L 15 1 L 15 2 L 17 2 L 17 3 L 18 3 L 18 4 L 19 4 L 19 5 L 20 5 L 20 7 L 21 7 L 21 15 L 20 15 L 20 17 L 19 17 L 19 18 L 18 18 L 18 19 L 17 19 L 17 20 L 15 20 L 15 21 Z M 14 19 L 14 18 L 16 18 L 16 17 L 17 17 L 17 16 L 18 16 L 18 14 L 19 14 L 19 8 L 18 8 L 18 6 L 17 6 L 17 5 L 16 5 L 16 4 L 14 4 L 14 3 L 8 3 L 8 4 L 6 4 L 6 5 L 5 5 L 5 6 L 4 6 L 4 8 L 3 8 L 3 14 L 4 14 L 4 16 L 5 16 L 5 17 L 6 17 L 6 18 L 8 18 L 8 19 L 14 19 Z"/>
        <path d="M 10.988 21.358 L 11.006 21.358 L 11.006 20.332 L 8.918 20.332 L 8.918 19.305 L 7.874 19.305 L 7.874 18.28 L 6.83 18.28 L 6.83 17.253 L 5.786 17.253 L 5.786 15.2 L 4.742 15.2 L 4.742 6.989 L 5.786 6.989 L 5.786 4.935 L 6.83 4.935 L 6.83 3.909 L 7.874 3.909 L 7.874 2.882 L 8.918 2.882 L 8.918 1.857 L 11.006 1.857 L 11.006 0.83 L 10.988 0.83 L 10.988 1.857 L 13.076 1.857 L 13.076 2.882 L 14.12 2.882 L 14.12 3.909 L 15.164 3.909 L 15.164 4.935 L 16.208 4.935 L 16.208 6.989 L 17.252 6.989 L 17.252 15.2 L 16.208 15.2 L 16.208 17.253 L 15.164 17.253 L 15.164 18.28 L 14.12 18.28 L 14.12 19.305 L 13.076 19.305 L 13.076 20.332 L 10.988 20.332 L 10.988 21.358 Z M 9.944 19.305 L 9.944 18.28 L 12.032 18.28 L 12.032 17.253 L 13.076 17.253 L 13.076 16.226 L 14.12 16.226 L 14.12 14.173 L 15.164 14.173 L 15.164 8.014 L 14.12 8.014 L 14.12 5.962 L 13.076 5.962 L 13.076 4.935 L 12.032 4.935 L 12.032 3.909 L 9.944 3.909 L 9.944 2.882 L 12.05 2.882 L 12.05 3.909 L 9.962 3.909 L 9.962 4.935 L 8.918 4.935 L 8.918 5.962 L 7.874 5.962 L 7.874 8.014 L 6.83 8.014 L 6.83 14.173 L 7.874 14.173 L 7.874 16.226 L 8.918 16.226 L 8.918 17.253 L 9.962 17.253 L 9.962 18.28 L 12.05 18.28 L 12.05 19.305 L 9.944 19.305 Z"/>
    </symbol>
</svg>