<?xml version="1.0" encoding="utf-8"?><!-- Uploaded to: SVG Repo, www.svgrepo.com, Generator: SVG Repo Mixer Tools -->
<svg xmlns="http://www.w3.org/2000/svg">
    <symbol fill="currentColor" viewBox="0 0 22 22" id="about">
        <path d="M20 1H5V2H4V15H6V3H15V19H13V18H12V17H1V20H2V21H16V20H17V3H19V5H21V2H20" />
    </symbol>
    <symbol fill="currentColor" viewBox="0 0 22 22" id="cv">
        <path d="M9 3H13V4H14V5H15V9H14V10H13V11H9V10H8V9H7V5H8V4H9V3M10 8V9H12V8H13V6H12V5H10V6H9V8H10M7 12H15V13H17V14H18V15H19V19H3V15H4V14H5V13H7V12M6 16H5V17H17V16H16V15H14V14H8V15H6V16Z" />
    </symbol>
    <symbol fill="currentColor" viewBox="0 0 22 22" id="terminal">
        <path d="M20 3V19H19V20H3V19H2V3H3V2H19V3H20M18 6H4V18H18V6M9 9V10H10V11H11V13H10V14H9V15H8V16H6V14H7V13H8V11H7V10H6V8H8V9H9M11 16V14H16V16H11Z" />
    </symbol>
</svg>